<?xml version="1.0" encoding="UTF-8" ?>
<!DOCTYPE svg PUBLIC "-//W3C//DTD SVG 1.1//EN" "http://www.w3.org/Graphics/SVG/1.1/DTD/svg11.dtd">
<svg width="1541pt" height="1532pt" viewBox="0 0 1541 1532" version="1.1" xmlns="http://www.w3.org/2000/svg">
<path fill="#070707" opacity="0.96" d=" M 690.00 0.00 L 690.88 0.00 C 729.96 10.64 737.14 58.15 770.85 75.52 C 803.70 57.38 811.42 10.74 850.13 0.00 L 851.87 0.00 C 887.36 18.90 885.37 66.04 914.17 90.62 C 950.61 81.09 966.94 34.18 1007.78 34.19 C 1041.70 57.09 1027.27 106.29 1051.83 134.84 C 1089.59 133.24 1115.75 89.92 1155.63 99.80 C 1183.03 130.06 1158.09 174.79 1176.99 207.68 C 1214.08 211.81 1248.96 178.02 1285.62 194.29 C 1304.19 229.68 1275.63 266.98 1283.14 303.45 C 1318.33 316.75 1361.73 289.41 1393.78 314.58 C 1403.90 353.26 1367.48 382.90 1368.33 420.02 C 1399.34 441.90 1447.04 422.15 1473.74 453.24 C 1476.95 493.71 1433.06 515.33 1427.28 552.57 C 1453.91 578.54 1501.16 571.03 1522.68 604.77 C 1520.40 646.24 1469.87 658.07 1457.34 693.71 C 1477.62 725.21 1526.86 726.78 1539.81 765.14 C 1527.68 804.26 1477.38 806.21 1457.26 838.06 C 1471.30 872.89 1519.34 885.98 1523.18 926.34 C 1501.38 960.18 1454.50 952.84 1427.27 978.52 C 1432.30 1016.12 1478.71 1038.62 1473.22 1079.08 C 1445.19 1108.58 1400.21 1090.86 1368.14 1110.60 C 1366.97 1148.58 1405.59 1179.56 1392.75 1218.45 C 1385.21 1221.70 1377.46 1224.50 1369.91 1227.72 C 1341.21 1231.20 1311.25 1217.37 1283.18 1227.43 C 1275.68 1264.21 1304.04 1301.74 1285.51 1337.55 C 1248.03 1353.26 1213.97 1318.82 1176.88 1324.32 C 1158.01 1357.04 1183.07 1403.05 1154.54 1432.07 C 1125.75 1437.69 1102.99 1417.25 1079.26 1404.80 C 1068.83 1397.87 1048.26 1388.90 1043.97 1407.12 C 1031.54 1437.06 1036.55 1476.73 1007.96 1497.64 C 967.07 1496.92 950.62 1450.65 914.25 1441.09 C 884.86 1464.57 888.28 1515.55 850.12 1530.70 C 811.18 1521.01 803.93 1473.43 770.91 1456.10 C 737.13 1472.86 729.76 1523.19 689.52 1530.57 C 653.37 1512.93 656.04 1464.42 626.72 1441.03 C 590.20 1450.43 574.15 1497.15 533.14 1497.52 C 500.86 1473.53 512.90 1425.71 489.56 1396.18 C 451.74 1398.42 425.33 1441.67 385.46 1431.31 C 359.36 1401.03 381.13 1358.05 365.21 1324.54 C 327.96 1317.87 292.19 1354.38 255.22 1336.76 C 236.72 1301.06 267.06 1263.82 257.61 1227.55 C 222.56 1214.36 180.56 1242.02 148.35 1217.53 C 136.06 1178.83 174.32 1148.35 172.79 1111.05 C 141.36 1089.94 93.92 1109.14 67.32 1078.00 C 65.10 1037.79 108.52 1015.85 113.72 978.53 C 88.79 953.62 44.55 960.90 22.68 931.28 C 12.56 923.93 24.11 912.68 25.56 903.58 C 41.05 878.86 73.17 866.15 83.80 838.15 C 64.17 806.11 13.17 804.15 1.40 765.24 C 14.67 727.02 63.11 724.95 83.91 693.84 C 70.77 658.70 23.00 646.52 18.20 606.24 C 38.06 570.22 87.40 579.31 113.84 552.46 C 108.63 515.10 63.43 492.89 67.77 452.70 C 95.55 422.42 141.40 440.90 173.05 420.33 C 174.08 382.46 135.66 351.87 148.67 312.75 C 161.93 307.54 175.06 299.78 189.96 303.89 C 212.44 302.88 236.15 314.05 257.58 303.51 C 267.04 267.14 235.88 229.28 255.78 193.63 C 287.47 182.13 317.85 201.30 348.27 208.06 C 355.17 208.06 366.07 210.80 367.56 201.46 C 378.48 168.80 361.37 128.80 385.41 99.75 C 425.21 90.33 452.40 133.46 490.12 134.67 C 513.89 105.51 499.49 57.06 533.29 34.10 C 568.07 35.44 587.08 67.93 613.49 85.55 C 619.86 87.88 628.24 94.27 632.90 85.88 C 654.64 59.13 656.65 17.37 690.00 0.00 M 691.30 12.34 C 657.66 31.63 662.60 80.48 630.46 101.78 C 591.32 97.64 575.28 49.15 536.34 45.22 C 507.83 71.70 522.66 118.85 494.42 145.96 C 455.65 147.68 430.46 106.06 391.77 109.45 C 368.96 140.64 392.72 185.09 371.55 216.77 C 334.03 228.08 300.79 190.36 263.56 202.38 C 247.96 238.05 280.59 275.05 266.85 311.51 C 232.08 330.07 191.15 300.61 157.16 320.51 C 150.88 358.55 189.15 388.00 182.98 426.33 C 153.27 451.81 107.73 432.14 78.16 457.28 C 78.65 496.43 124.43 517.56 125.25 556.43 C 100.61 586.60 52.66 577.13 29.38 608.20 C 37.80 645.93 85.68 656.69 95.81 694.13 C 79.54 729.39 28.54 730.38 13.13 765.89 C 28.64 801.58 79.71 801.63 95.77 836.89 C 85.88 874.71 37.68 885.48 29.20 923.73 C 53.54 953.93 102.23 945.08 125.59 975.85 C 123.00 1014.42 79.12 1035.09 78.15 1073.70 C 107.08 1100.18 154.28 1079.13 183.01 1105.47 C 189.02 1143.78 150.30 1173.21 157.46 1211.13 C 191.22 1229.57 231.19 1202.35 265.97 1219.10 C 281.87 1254.66 247.72 1292.77 263.27 1328.68 C 300.60 1340.26 335.53 1303.53 372.56 1315.26 C 391.38 1348.18 370.07 1390.21 391.55 1421.84 C 430.47 1426.34 456.27 1381.86 495.18 1385.65 C 522.80 1412.81 506.97 1460.83 536.37 1485.92 C 575.14 1482.52 591.83 1433.78 630.26 1429.73 C 657.23 1449.05 659.54 1485.27 679.02 1509.94 C 684.08 1512.90 689.04 1521.55 695.63 1517.74 C 729.02 1502.80 735.39 1456.73 770.86 1444.19 C 807.33 1457.70 812.81 1507.30 849.81 1518.94 C 883.43 1499.71 878.90 1449.42 912.02 1429.30 C 950.34 1435.67 966.63 1482.49 1005.37 1485.83 C 1028.11 1465.07 1022.76 1430.46 1034.11 1404.12 C 1040.47 1398.06 1042.34 1379.73 1054.58 1386.39 C 1089.90 1387.57 1113.80 1427.10 1150.03 1421.43 C 1172.49 1390.10 1147.67 1344.84 1170.38 1314.00 C 1207.76 1305.08 1240.84 1340.03 1277.73 1328.81 C 1293.18 1292.99 1259.76 1255.07 1275.32 1219.39 C 1309.79 1202.63 1349.61 1229.49 1383.43 1211.30 C 1391.63 1172.94 1350.51 1142.38 1358.83 1104.16 C 1389.14 1080.02 1434.49 1099.46 1463.01 1073.37 C 1462.07 1034.52 1416.79 1013.85 1416.19 974.53 C 1441.21 945.13 1488.89 954.05 1511.99 922.86 C 1503.33 885.10 1454.01 874.23 1445.44 836.38 C 1463.30 801.96 1511.66 800.68 1528.53 765.93 C 1512.41 730.52 1461.88 729.51 1445.41 694.30 C 1455.77 656.96 1503.17 646.00 1511.93 608.15 C 1488.68 577.78 1441.52 586.07 1416.64 557.07 C 1415.31 517.58 1463.49 496.85 1462.87 457.52 C 1433.72 431.32 1386.65 451.84 1357.82 425.57 C 1352.70 387.47 1390.43 358.45 1383.75 320.74 C 1350.29 300.38 1307.63 331.03 1273.99 310.81 C 1261.30 274.55 1293.29 237.85 1277.49 202.32 C 1240.46 191.46 1207.57 226.80 1170.18 217.00 C 1147.61 185.61 1172.00 140.78 1149.54 109.12 C 1110.74 106.59 1085.54 147.90 1046.53 145.88 C 1018.69 118.71 1033.15 72.10 1005.47 45.28 C 968.64 48.00 953.20 90.92 918.81 99.89 C 908.75 106.37 902.53 92.58 895.76 87.23 C 879.42 63.09 876.72 27.85 849.84 12.02 C 813.26 24.41 807.09 72.63 771.41 87.23 C 734.49 75.04 728.43 23.97 691.30 12.34 Z" />
<path fill="#808080" opacity="1.00" d=" M 691.30 12.34 C 728.43 23.97 734.49 75.04 771.41 87.23 C 807.09 72.63 813.26 24.41 849.84 12.02 C 876.72 27.85 879.42 63.09 895.76 87.23 C 902.53 92.58 908.75 106.37 918.81 99.89 C 953.20 90.92 968.64 48.00 1005.47 45.28 C 1033.15 72.10 1018.69 118.71 1046.53 145.88 C 1085.54 147.90 1110.74 106.59 1149.54 109.12 C 1172.00 140.78 1147.61 185.61 1170.18 217.00 C 1207.57 226.80 1240.46 191.46 1277.49 202.32 C 1293.29 237.85 1261.30 274.55 1273.99 310.81 C 1307.63 331.03 1350.29 300.38 1383.75 320.74 C 1390.43 358.45 1352.70 387.47 1357.82 425.57 C 1386.65 451.84 1433.72 431.32 1462.87 457.52 C 1463.49 496.85 1415.31 517.58 1416.64 557.07 C 1441.52 586.07 1488.68 577.78 1511.93 608.15 C 1503.17 646.00 1455.77 656.96 1445.41 694.30 C 1461.88 729.51 1512.41 730.52 1528.53 765.93 C 1511.66 800.68 1463.30 801.96 1445.44 836.38 C 1454.01 874.23 1503.33 885.10 1511.99 922.86 C 1488.89 954.05 1441.21 945.13 1416.19 974.53 C 1416.79 1013.85 1462.07 1034.52 1463.01 1073.37 C 1434.49 1099.46 1389.14 1080.02 1358.83 1104.16 C 1350.51 1142.38 1391.63 1172.94 1383.43 1211.30 C 1349.61 1229.49 1309.79 1202.63 1275.32 1219.39 C 1259.76 1255.07 1293.18 1292.99 1277.73 1328.81 C 1240.84 1340.03 1207.76 1305.08 1170.38 1314.00 C 1147.67 1344.84 1172.49 1390.10 1150.03 1421.43 C 1113.80 1427.10 1089.90 1387.57 1054.58 1386.39 C 1042.34 1379.73 1040.47 1398.06 1034.11 1404.12 C 1022.76 1430.46 1028.11 1465.07 1005.37 1485.83 C 966.63 1482.49 950.34 1435.67 912.02 1429.30 C 878.90 1449.42 883.43 1499.71 849.81 1518.94 C 812.81 1507.30 807.33 1457.70 770.86 1444.19 C 735.39 1456.73 729.02 1502.80 695.63 1517.74 C 689.04 1521.55 684.08 1512.90 679.02 1509.94 C 659.54 1485.27 657.23 1449.05 630.26 1429.73 C 591.83 1433.78 575.14 1482.52 536.37 1485.92 C 506.97 1460.83 522.80 1412.81 495.18 1385.65 C 456.27 1381.86 430.47 1426.34 391.55 1421.84 C 370.07 1390.21 391.38 1348.18 372.56 1315.26 C 335.53 1303.53 300.60 1340.26 263.27 1328.68 C 247.72 1292.77 281.87 1254.66 265.97 1219.10 C 231.19 1202.35 191.22 1229.57 157.46 1211.13 C 150.30 1173.21 189.02 1143.78 183.01 1105.47 C 154.28 1079.13 107.08 1100.18 78.15 1073.70 C 79.12 1035.09 123.00 1014.42 125.59 975.85 C 102.23 945.08 53.54 953.93 29.20 923.73 C 37.68 885.48 85.88 874.71 95.77 836.89 C 79.71 801.63 28.64 801.58 13.13 765.89 C 28.54 730.38 79.54 729.39 95.81 694.13 C 85.68 656.69 37.80 645.93 29.38 608.20 C 52.66 577.13 100.61 586.60 125.25 556.43 C 124.43 517.56 78.65 496.43 78.16 457.28 C 107.73 432.14 153.27 451.81 182.98 426.33 C 189.15 388.00 150.88 358.55 157.16 320.51 C 191.15 300.61 232.08 330.07 266.85 311.51 C 280.59 275.05 247.96 238.05 263.56 202.38 C 300.79 190.36 334.03 228.08 371.55 216.77 C 392.72 185.09 368.96 140.64 391.77 109.45 C 430.46 106.06 455.65 147.68 494.42 145.96 C 522.66 118.85 507.83 71.70 536.34 45.22 C 575.28 49.15 591.32 97.64 630.46 101.78 C 662.60 80.48 657.66 31.63 691.30 12.34 M 744.58 153.59 C 519.83 160.62 306.85 303.71 214.57 508.56 C 140.46 666.37 139.30 856.16 210.96 1015.04 C 275.68 1161.78 400.79 1280.29 550.64 1337.36 C 693.22 1393.40 857.17 1391.49 999.00 1334.00 C 1142.30 1276.67 1262.69 1163.36 1326.68 1022.69 C 1404.32 858.08 1401.22 658.38 1320.45 495.53 C 1255.59 362.33 1140.26 254.75 1003.02 198.99 C 921.62 165.13 832.63 149.54 744.58 153.59 Z" />
<path fill="#070707" opacity="0.96" d=" M 744.58 153.59 C 832.63 149.54 921.62 165.13 1003.02 198.99 C 1140.26 254.75 1255.59 362.33 1320.45 495.53 C 1401.22 658.38 1404.32 858.08 1326.68 1022.69 C 1262.69 1163.36 1142.30 1276.67 999.00 1334.00 C 857.17 1391.49 693.22 1393.40 550.64 1337.36 C 400.79 1280.29 275.68 1161.78 210.96 1015.04 C 139.30 856.16 140.46 666.37 214.57 508.56 C 306.85 303.71 519.83 160.62 744.58 153.59 M 755.51 163.53 C 697.56 166.00 638.22 173.74 584.00 193.97 C 646.39 304.59 708.06 415.75 770.91 526.03 C 833.08 414.95 895.72 304.12 957.84 193.02 C 892.61 172.32 823.99 161.31 755.51 163.53 M 573.08 196.48 C 500.95 221.18 433.93 260.39 376.18 310.12 C 440.98 420.60 506.57 530.76 572.13 640.82 C 612.67 577.42 685.43 532.79 761.69 532.32 C 699.83 420.13 636.24 307.10 573.08 196.48 M 967.47 197.05 C 904.20 308.41 841.28 420.13 779.19 532.14 C 855.54 533.24 928.77 576.70 968.99 641.14 C 1034.55 531.26 1099.57 420.99 1164.95 310.98 C 1108.02 260.49 1039.99 220.29 967.47 197.05 M 367.40 318.34 C 274.04 402.71 206.40 517.05 182.20 640.82 C 309.03 644.15 436.01 643.13 562.89 646.43 C 500.39 538.07 435.20 431.05 372.01 323.00 C 370.72 321.75 369.65 317.45 367.40 318.34 M 1172.32 318.31 C 1107.56 427.46 1042.36 536.64 978.16 646.16 C 1105.28 643.70 1232.46 643.39 1359.58 641.25 C 1334.14 517.51 1267.48 400.26 1172.32 318.31 M 751.60 542.56 C 640.60 549.16 545.23 650.62 546.94 762.02 C 542.47 864.25 618.93 961.48 718.34 983.64 C 800.09 1004.13 891.89 973.40 944.31 907.31 C 1003.70 836.92 1011.52 728.40 962.53 650.47 C 920.69 578.13 834.86 534.06 751.60 542.56 M 179.40 651.93 C 163.72 726.64 164.42 805.06 179.34 879.93 C 307.11 877.81 434.99 877.03 562.78 875.18 C 528.06 807.38 528.05 723.72 562.95 655.87 C 435.10 655.10 307.27 652.51 179.40 651.93 M 1287.55 652.55 C 1184.38 653.44 1081.26 655.47 978.10 655.80 C 1013.35 723.44 1013.46 807.38 978.23 875.13 C 1105.99 877.23 1233.80 877.75 1361.54 880.05 C 1378.06 805.69 1375.94 727.46 1362.02 652.78 C 1338.27 651.19 1312.16 651.88 1287.55 652.55 M 560.50 885.35 C 434.12 886.93 307.66 888.84 181.27 889.57 C 206.80 1014.00 273.85 1129.07 368.16 1213.98 C 432.60 1106.71 495.82 998.59 560.06 891.15 C 560.75 889.12 565.47 883.68 560.50 885.35 M 977.88 884.95 C 1042.14 994.83 1108.29 1103.67 1172.09 1213.80 C 1267.34 1130.12 1334.52 1014.07 1359.59 889.62 C 1232.38 888.36 1105.04 887.47 977.88 884.95 M 571.57 891.43 C 506.21 1001.07 441.09 1110.95 376.20 1220.85 C 433.82 1271.06 501.31 1310.48 573.74 1334.93 C 636.59 1223.31 699.49 1111.63 761.92 999.78 C 686.84 997.38 614.32 956.43 574.08 892.91 C 573.49 892.36 572.27 889.99 571.57 891.43 M 968.29 891.18 C 928.36 955.37 855.55 996.86 780.17 1000.08 C 841.55 1112.14 905.01 1223.81 968.09 1335.06 C 1039.95 1309.61 1107.59 1271.32 1164.82 1220.85 C 1100.46 1110.57 1034.56 1001.16 969.76 891.13 C 969.39 891.14 968.66 891.17 968.29 891.18 M 770.11 1005.94 C 708.16 1115.78 646.60 1225.84 584.73 1335.73 C 582.98 1338.28 585.68 1339.14 588.35 1339.68 C 705.88 1377.70 835.02 1376.86 952.64 1339.73 C 958.09 1339.85 957.22 1335.69 954.92 1333.12 C 893.00 1224.31 832.91 1113.90 770.11 1005.94 Z" />
<path fill="#808080" opacity="1.00" d=" M 573.08 196.48 C 636.24 307.10 699.83 420.13 761.69 532.32 C 685.43 532.79 612.67 577.42 572.13 640.82 C 506.57 530.76 440.98 420.60 376.18 310.12 C 433.93 260.39 500.95 221.18 573.08 196.48 Z" />
<path fill="#808080" opacity="1.00" d=" M 967.47 197.05 C 1039.99 220.29 1108.02 260.49 1164.95 310.98 C 1099.57 420.99 1034.55 531.26 968.99 641.14 C 928.77 576.70 855.54 533.24 779.19 532.14 C 841.28 420.13 904.20 308.41 967.47 197.05 Z" />
<path fill="#808080" opacity="1.00" d=" M 751.60 542.56 C 834.86 534.06 920.69 578.13 962.53 650.47 C 1011.52 728.40 1003.70 836.92 944.31 907.31 C 891.89 973.40 800.09 1004.13 718.34 983.64 C 618.93 961.48 542.47 864.25 546.94 762.02 C 545.23 650.62 640.60 549.16 751.60 542.56 M 756.57 608.55 C 674.33 613.82 606.28 692.59 613.21 774.65 C 615.90 851.07 681.74 918.29 758.01 923.01 C 820.98 928.69 885.16 892.39 912.12 835.12 C 941.01 778.91 930.36 705.77 887.34 659.66 C 854.80 623.69 805.03 603.47 756.57 608.55 Z" />
<path fill="#070707" opacity="0.96" d=" M 756.57 608.55 C 805.03 603.47 854.80 623.69 887.34 659.66 C 930.36 705.77 941.01 778.91 912.12 835.12 C 885.16 892.39 820.98 928.69 758.01 923.01 C 681.74 918.29 615.90 851.07 613.21 774.65 C 606.28 692.59 674.33 613.82 756.57 608.55 M 759.61 618.55 C 719.96 621.20 681.79 640.88 656.69 671.69 C 622.76 712.26 613.08 771.46 633.57 820.43 C 650.87 865.35 691.96 899.93 738.95 910.03 C 791.40 921.84 849.56 902.31 883.58 860.58 C 911.39 828.02 923.87 783.03 916.19 740.80 C 905.30 667.95 833.15 610.90 759.61 618.55 Z" />
<path fill="#808080" opacity="1.00" d=" M 179.40 651.93 C 307.27 652.51 435.10 655.10 562.95 655.87 C 528.05 723.72 528.06 807.38 562.78 875.18 C 434.99 877.03 307.11 877.81 179.34 879.93 C 164.42 805.06 163.72 726.64 179.40 651.93 Z" />
<path fill="#808080" opacity="1.00" d=" M 1287.55 652.55 C 1312.16 651.88 1338.27 651.19 1362.02 652.78 C 1375.94 727.46 1378.06 805.69 1361.54 880.05 C 1233.80 877.75 1105.99 877.23 978.23 875.13 C 1013.46 807.38 1013.35 723.44 978.10 655.80 C 1081.26 655.47 1184.38 653.44 1287.55 652.55 Z" />
<path fill="#808080" opacity="1.00" d=" M 571.57 891.43 C 572.27 889.99 573.49 892.36 574.08 892.91 C 614.32 956.43 686.84 997.38 761.92 999.78 C 699.49 1111.63 636.59 1223.31 573.74 1334.93 C 501.31 1310.48 433.82 1271.06 376.20 1220.85 C 441.09 1110.95 506.21 1001.07 571.57 891.43 Z" />
<path fill="#808080" opacity="1.00" d=" M 968.29 891.18 C 968.66 891.17 969.39 891.14 969.76 891.13 C 1034.56 1001.16 1100.46 1110.57 1164.82 1220.85 C 1107.59 1271.32 1039.95 1309.61 968.09 1335.06 C 905.01 1223.81 841.55 1112.14 780.17 1000.08 C 855.55 996.86 928.36 955.37 968.29 891.18 Z" />
</svg>
